<svg xmlns="http://www.w3.org/2000/svg" viewBox="0 0 191.01 46.58">
    <g>
        <g id="Design"><polygon class="cls-1" points="84.88 7.56 84.88 4.81 74.55 4.81 74.55 7.56 77.3 7.56 77.3 15.82 74.55 15.82 74.55 18.58 84.88 18.58 84.88 15.82 82.12 15.82 82.12 7.56 84.88 7.56"></polygon><polygon class="cls-1" points="121.13 12.84 121.13 15.82 114.25 15.82 114.25 7.56 116.96 7.56 116.96 4.81 106.67 4.81 106.67 7.56 109.43 7.56 109.43 15.82 106.67 15.82 106.67 18.58 124.34 18.58 124.34 12.84 121.13 12.84"></polygon><path class="cls-1" d="M136.95,4.81H126V7.56h3v8.26h-2.77v2.75h11.47c1.15,0,7.13-.92,7.13-6.84C144.77,5.08,137.74,4.81,136.95,4.81Zm-.46,11h-2.74V7.56h2a3.94,3.94,0,0,1,3.46,4.18C139.26,14.58,137.17,15.82,136.49,15.82Z"></path><polygon class="cls-1" points="101.4 12.84 101.4 15.82 97.03 15.82 95.43 15.82 94.28 15.82 94.28 13.07 98.18 13.07 98.18 10.55 94.28 10.55 94.28 7.56 101.4 7.56 101.4 10.09 104.61 10.09 104.61 4.81 86.94 4.81 86.94 7.56 89.47 7.56 89.47 15.82 86.94 15.82 86.94 18.58 88.09 18.58 97.03 18.58 104.84 18.58 104.84 12.84 101.4 12.84"></polygon><polygon class="cls-1" points="54.59 4.81 54.59 7.56 57.34 7.56 57.34 15.82 54.82 15.82 54.82 18.58 65.6 18.58 65.6 15.82 62.16 15.82 62.16 13.07 66.05 13.07 66.05 10.55 62.16 10.55 62.16 7.56 69.27 7.56 69.27 10.55 72.48 10.55 72.48 4.81 54.59 4.81"></polygon><path class="cls-1" d="M164.33,26.38c1.88,0,2.86,1,3.5,2.7h3V23.34H167.6v2.18l-.53-.5a5.61,5.61,0,0,0-4.27-1.66c-5.34,0-7.25,3.69-7.25,7.14,0,2.47,1.06,6.61,8.19,6.61,3.89,0,6.26-1.87,7-5.56l0-.18h-2.29a4.22,4.22,0,0,1-3.86,2.77c-3.26,0-3.71-3.12-3.71-4C160.95,28.46,161.88,26.38,164.33,26.38Z"></path><polygon class="cls-1" points="115.62 23.34 115.62 29.07 118.83 29.07 118.83 26.09 122.28 26.09 122.28 34.35 119.53 34.35 119.53 37.1 129.84 37.1 129.84 34.35 127.09 34.35 127.09 26.09 130.54 26.09 130.54 29.07 133.75 29.07 133.75 23.34 115.62 23.34"></polygon><polygon class="cls-1" points="172.88 23.34 172.88 29.07 176.09 29.07 176.09 26.09 179.54 26.09 179.54 34.35 176.8 34.35 176.8 37.1 187.1 37.1 187.1 34.35 184.35 34.35 184.35 26.09 187.8 26.09 187.8 29.07 191.01 29.07 191.01 23.34 172.88 23.34"></polygon><path class="cls-1" d="M106.54,23.34h-2.29s-7.57,0-7.57,6.88,7.57,6.88,7.57,6.88h2.29s7.57,0,7.57-6.88S106.54,23.34,106.54,23.34Zm-1.15,11c-1.56,0-3.21-1.36-3.21-4.11s1.65-4.11,3.21-4.11,3.21,1.36,3.21,4.11S107,34.33,105.39,34.33Z"></path><polygon class="cls-1" points="150.27 31.37 150.27 34.35 145.9 34.35 144.3 34.35 143.16 34.35 143.16 31.6 147.05 31.6 147.05 29.07 143.16 29.07 143.16 26.09 150.27 26.09 150.27 28.62 153.48 28.62 153.48 23.34 135.81 23.34 135.81 26.09 138.34 26.09 138.34 34.35 135.81 34.35 135.81 37.1 136.96 37.1 145.9 37.1 153.71 37.1 153.71 31.37 150.27 31.37"></polygon><path class="cls-1" d="M94.22,31.82v.43c0,1.53-.46,1.89-1.12,1.89-.46,0-.57-.57-.63-.84-.3-1.82-.89-2.43-1.55-2.89a3.61,3.61,0,0,0-.63-.37,3.8,3.8,0,0,0,2.58-3.49c0-1.79-1.62-3.2-4.59-3.21H74.74v2.75h2.74v8.26h-3v2.75h10.1V34.35H82.3V31.6h2.77a2.1,2.1,0,0,1,2.09,1.56c.43,1.19.74,2.29.83,2.58a2.08,2.08,0,0,0,2.09,1.36h2.48a3.11,3.11,0,0,0,2.6-3.22V31.83ZM86.4,29.07H82.3v-3h4.25a1.56,1.56,0,0,1,1,1.55A1.41,1.41,0,0,1,86.4,29.07Z"></path><path class="cls-1" d="M68.35,23.34H54.59v2.75h3v8.26H54.82v2.75h10.3V34.35H62.38V31.6h6c1,0,4.81-.69,4.81-4.09C73.16,24.95,71.11,23.34,68.35,23.34Zm-1.88,5.74h-4.1v-3h4.15a1.43,1.43,0,0,1,1.14,1.54A1.33,1.33,0,0,1,66.48,29.07Z"></path><path class="cls-1" d="M25.7,4.49H41V16.84H45.5V1.3A1.3,1.3,0,0,0,44.21,0H25.7Z"></path><path class="cls-1" d="M4.49,16.84V4.49H19.81V0H1.3A1.3,1.3,0,0,0,0,1.3V16.84Z"></path><path class="cls-1" d="M41,23.34v6.85L25.68,41.07v5.5l18.9-13.41a2.21,2.21,0,0,0,.93-1.8v-8Z"></path><path class="cls-1" d="M19.83,41.07,4.49,30.19V23.34H0v8a2.21,2.21,0,0,0,.93,1.8l18.9,13.41Z"></path></g>
    </g>
</svg>
